<?xml version="1.0" encoding="UTF-8" standalone="no"?>
<!DOCTYPE svg PUBLIC "-//W3C//DTD SVG 1.1//EN"
 "http://www.w3.org/Graphics/SVG/1.1/DTD/svg11.dtd">
<!-- Generated by graphviz version 2.40.1 (20161225.0304)
 -->
<!-- Title: finite_state_machine Pages: 1 -->
<svg width="216pt" height="91pt"
 viewBox="0.00 0.00 215.90 90.67" xmlns="http://www.w3.org/2000/svg" xmlns:xlink="http://www.w3.org/1999/xlink">
<g id="graph0" class="graph" transform="scale(1 1) rotate(0) translate(4 86.6727)">
<title>finite_state_machine</title>
<polygon fill="#ffffff" stroke="transparent" points="-4,4 -4,-86.6727 211.8965,-86.6727 211.8965,4 -4,4"/>
<!-- A_0 -->
<g id="node1" class="node">
<title>A_0</title>
<ellipse fill="none" stroke="#000000" cx="27.6648" cy="-27.6648" rx="27.8306" ry="27.8306"/>
<text text-anchor="middle" x="27.6648" y="-23.4648" font-family="Times,serif" font-size="14.00" fill="#000000">A_0</text>
</g>
<!-- A -->
<g id="node2" class="node">
<title>A</title>
<ellipse fill="none" stroke="#000000" cx="113.2281" cy="-64.6648" rx="18.0157" ry="18.0157"/>
<text text-anchor="middle" x="113.2281" y="-60.4648" font-family="Times,serif" font-size="14.00" fill="#000000">A</text>
</g>
<!-- A_0&#45;&gt;A -->
<g id="edge1" class="edge">
<title>A_0&#45;&gt;A</title>
<path fill="none" stroke="#000000" d="M53.3366,-38.766C64.04,-43.3945 76.454,-48.7626 87.1953,-53.4075"/>
<polygon fill="#000000" stroke="#000000" points="85.9247,-56.6712 96.4925,-57.4279 88.7031,-50.2462 85.9247,-56.6712"/>
<text text-anchor="middle" x="75.2749" y="-51.8648" font-family="Times,serif" font-size="14.00" fill="#000000">i</text>
</g>
<!-- B -->
<g id="node3" class="node">
<title>B</title>
<ellipse fill="none" stroke="#000000" cx="189.8965" cy="-27.6648" rx="18" ry="18"/>
<text text-anchor="middle" x="189.8965" y="-23.4648" font-family="Times,serif" font-size="14.00" fill="#000000">B</text>
</g>
<!-- A_0&#45;&gt;B -->
<g id="edge3" class="edge">
<title>A_0&#45;&gt;B</title>
<path fill="none" stroke="#000000" d="M55.3521,-23.9911C76.2082,-21.6747 105.5105,-19.3787 131.2359,-20.8648 141.3081,-21.4466 152.3046,-22.5859 162.0266,-23.7682"/>
<polygon fill="#000000" stroke="#000000" points="161.6077,-27.243 171.9717,-25.0435 162.4981,-20.2999 161.6077,-27.243"/>
<text text-anchor="middle" x="113.2281" y="-25.8648" font-family="Times,serif" font-size="14.00" fill="#000000">g</text>
</g>
<!-- A&#45;&gt;B -->
<g id="edge2" class="edge">
<title>A&#45;&gt;B</title>
<path fill="none" stroke="#000000" d="M129.4875,-56.8181C139.6522,-51.9126 152.9582,-45.4911 164.4943,-39.9238"/>
<polygon fill="#000000" stroke="#000000" points="166.1757,-42.9987 173.6605,-35.5002 163.1332,-36.6945 166.1757,-42.9987"/>
<text text-anchor="middle" x="151.5662" y="-50.8648" font-family="Times,serif" font-size="14.00" fill="#000000">f</text>
</g>
</g>
</svg>
